
<svg version="1.1" xmlns="http://www.w3.org/2000/svg" xmlns:xlink="http://www.w3.org/1999/xlink" x="0px" y="0px" width="100%" height="310px" viewBox="0 0 400 310" enable-background="new 0 0 400 310" xml:space="preserve">

    <path id="_iles_" fill="#2670bf" d="M261.325,174.131v-4.852l-11.093-5.844c0,0-7.428-1.98-8.219-0.693c-0.793,1.287,7.18,5.695,7.18,5.695
        L261.325,174.131z M267.268,171.953v5.547l7.526,6.537h2.276c0,0,1.685-4.359-1.387-6.835
        C272.615,174.727,267.268,171.953,267.268,171.953L267.268,171.953z"></path>
    <path id="_1_arr" fill="#2670bf" d="M212.758,129.014c-0.838,1.807-1.718,3.439-2.602,4.887c-2.148,3.52-4.297,5.984-5.82,7.514l38.604,17.069
        c-0.002,0,2.771-0.76,6.205,0c0.85,0.188,2.058,0.633,3.392,1.197l0.017-0.062c2.322-4.551,4.704-9.172,6.922-13.451
        c-10.826-5.064-38.115-18.031-42.746-20.232C214.508,127.416,213.141,128.655,212.758,129.014z" style="fill: rgb(7, 35, 59);"></path>
    <path id="_2_arr" fill="#2670bf" d="M260.383,144.41c4.115-7.936,7.518-14.42,8.663-16.596c-3.614-1.527-8.097-3.182-13.903-5.107
        c-0.117-0.018-0.224-0.053-0.324-0.107c-1.27-0.42-2.596-0.852-3.994-1.297c-4.477-1.432-8.646-2.002-12.467-2.002
        c-7.857,0-14.256,2.426-18.717,4.873c-0.316,0.174-0.619,0.346-0.916,0.52l3.549,1.684c3.297,1.568,7.812,3.711,12.668,6.014
        C244.178,136.771,254.648,141.726,260.383,144.41z" style="fill: rgb(7, 35, 59);"></path>
    <path id="_3_arr" fill="#2670bf" d="M298.772,166.509c-0.003-8.141-1.964-14.299-4.616-19c-2.656-4.699-6.016-7.947-8.854-10.191
        c-1.896-1.496-3.546-2.537-4.638-3.293c-2.658-1.841-5.614-3.546-9.798-5.418l-0.049,0.09l-1.109,2.111
        c-0.951,1.818-2.307,4.404-3.912,7.486c-1.102,2.111-2.328,4.469-3.619,6.957c13.199,6.234,22.37,12.123,29.231,17.235
        c2.784,2.074,5.187,4.019,7.329,5.804C298.759,167.686,298.772,167.091,298.772,166.509z" style="fill: rgb(7, 35, 59);"></path>
    <path id="_4_arr" fill="#2670bf" d="M298.598,170.761c-3.63-3.059-7.979-6.6-13.75-10.502c-6.046-4.089-13.652-8.564-23.58-13.249
        c-2.221,4.285-4.603,8.906-6.93,13.467c3.646,1.666,7.482,3.722,7.482,3.722s8.847,5.313,12.016,7.262
        c3.169,1.944,5.811,3.961,7.658,7.129c3.302,5.021,3.83,10.563,3.83,10.563s3.521,1.699,7.525,4.923
        C296.343,185.034,298.08,177.323,298.598,170.761z" style="fill: rgb(7, 35, 59);"></path>
    <path id="_11_arr" fill="#2670bf" d="M307.067,175.206c2.682,2.052,5.071,3.495,7.752,4.28c1.53,0.449,3.167,0.688,5.034,0.688
        c17.727,0.001,31.795,3.387,37.441,4.982l-44.461-66.131l-0.343,0.154c-14.533,6.71-24.94,13.122-27.997,15.067l0.607,0.434
        c1.366,1,2.938,2.252,4.547,3.814c3.218,3.121,6.582,7.494,8.749,13.555c1.444,4.039,2.356,8.82,2.355,14.461
        c0,1.094-0.038,2.225-0.108,3.385C303.056,171.934,305.133,173.727,307.067,175.206z" style="fill: rgb(7, 35, 59);"></path>
    <path id="_5_arr" fill="#2670bf" d="M245.441,216.134c6.414,3.323,12.002,4.622,16.848,4.624c4.74-0.002,8.786-1.244,12.229-3.124
        c3.44-1.883,6.273-4.411,8.526-6.976c4.506-5.124,6.668-10.376,6.771-10.639l0.006-0.01c0.103-0.26,0.305-0.449,0.544-0.548
        l-1.736-1.992l-32.155-20.465c0,0,1.268,0.903-8.078-4.761c-1.545,3.107-2.94,5.955-4.082,8.355
        c-1.149,2.418-2.043,4.389-2.567,5.688c-1.122,2.778-1.591,5.463-1.874,8.063c-0.286,2.599-0.381,5.106-0.799,7.518
        c-0.28,1.605-0.709,3.17-1.455,4.658c-0.803,1.603-1.985,3.096-3.674,4.437c3.602,1.509,7.428,3.203,11.473,5.158L245.441,216.134
        z" style="fill: rgb(7, 35, 59);"></path>
    <path id="_6_arr" fill="#2670bf" d="M199.193,194.807c1.463,1.721,3.778,3.852,7.194,5.465c3.557,1.682,8.84,3.485,15.459,5.938
        c3.041,1.129,6.379,2.405,9.956,3.866c1.095-0.738,1.962-1.512,2.648-2.323c0.735-0.87,1.276-1.782,1.692-2.753
        c0.828-1.939,1.142-4.141,1.366-6.586c0.152-1.63,0.269-3.361,0.498-5.182c0.308-2.424,0.817-5.008,1.899-7.687
        c0.556-1.376,1.457-3.36,2.615-5.798c1.158-2.436,2.569-5.318,4.137-8.46l0.052-0.065c-11.021-6.709-9.849-9.009-9.849-9.009
        l-7.649-3.225c-0.304,0.774-1.808,4.495-4.541,9.243c-3.067,5.32-7.675,11.93-13.909,17.084c-3.804,3.144-8.229,5.733-13.266,7.135
        l0.12,0.203C197.946,193.189,198.462,193.947,199.193,194.807z" style="fill: rgb(7, 35, 59);"></path>
    <path id="_7_arr" fill="#2670bf" d="M143.299,159.592c1.14,1.133,2.771,2.732,4.723,4.588c3.908,3.713,9.114,8.461,14.286,12.581
        c3.447,2.749,6.883,5.218,9.878,6.908c9.837,5.56,19.731,7.108,23.004,7.487c0.126-0.121,0.273-0.221,0.455-0.262
        c5.18-1.178,9.733-3.732,13.667-6.949c3.934-3.213,7.239-7.081,9.899-10.84c5.167-7.295,7.888-14.143,8.175-14.885l-27.496-11.586
        c0,0-10.827-6.471-33.142-3.17c-7.261,1.629-16.678,8.834-24.122,15.457L143.299,159.592z" style="fill: rgb(7, 35, 59);"></path>
    <path id="_15_arr" fill="#2670bf" d="M181.384,230.712c6.608-8.303,13.77-16.431,18.821-22.016c2.705-2.99,4.788-5.232,5.869-6.396l-0.531-0.238
        c-3.715-1.754-6.251-4.08-7.857-5.974c-1.062-1.248-1.713-2.3-2.048-2.896c-2.548-0.245-13.446-1.609-24.424-7.801
        c-3.145-1.776-6.642-4.295-10.14-7.082c-3.495-2.785-6.989-5.838-10.095-8.67c-4.459-4.068-8.11-7.675-9.826-9.394
        c-6.291,5.726-10.848,10.685-10.848,10.685l-34.596,53.607h0h0l0,0.001l4.754,2.642l2.906,5.678l-4.623,5.02v3.432l2.113,3.83
        l3.961,0.396c0,0,7.794-7.605,10.959-10.697c3.167-3.09,6.471-1.32,6.471-1.32s27.85,16.58,43.514,20.74
        c-0.002-0.139,0.021-0.279,0.082-0.414c1.438-3.195,3.669-6.89,6.367-10.841C174.912,239.061,178.078,234.864,181.384,230.712z" style="fill: rgb(7, 35, 59);"></path>
    <path id="_8_arr" fill="#2670bf" d="M212.948,80.865c-1.271,0.217-2.72,0.535-4.308,0.947c-2.916,0.756-6.293,1.805-9.873,3.036
        c-7.162,2.463-15.145,5.658-21.982,8.675c-4.558,2.014-8.61,3.951-11.56,5.535c-1.684,0.904-3.013,1.697-3.839,2.295
        c-1.648,1.191-2.92,2.664-3.901,4.223c-0.982,1.559-1.671,3.201-2.148,4.701c-0.741,2.318-0.974,4.291-1.041,5.08l0.516,0.592
        c4.557,5.434,8.5,12.43,10.913,21.381c0.025,0.096,0.021,0.188,0.018,0.281l0.082-0.021c18.877-4.354,32.936,1.23,36.592,2.93
        c0.268-0.254,0.561-0.543,0.885-0.879c1.399-1.455,3.279-3.688,5.162-6.771c3.766-6.172,7.557-15.74,7.557-29.387
        C216.021,96.915,215.141,89.399,212.948,80.865z" style="fill: rgb(7, 35, 59);"></path>
    <path id="_16_arr" fill="#2670bf" d="M88.595,224.867c-0.001,0.001,12.792-30.696,36.824-56.975c12.71-14.376,22.15-25.292,38.518-29.794
        c-0.048-0.08-0.099-0.158-0.124-0.252c-2.305-8.541-6.02-15.188-10.314-20.379c-4.295-5.191-9.172-8.926-13.802-11.604
        c-9.255-5.359-17.52-6.473-17.944-6.525l-0.017-0.002l-0.011-0.004l-0.003,0.029l-22.579,41.857c0,0-1.848,0.529-4.357,3.697
        c-2.51,3.17-13.865,39.483-13.865,39.483l-11.752,10.563c0,0-4.092,5.412-1.451,16.638c2.641,11.223,10.828,13.732,10.828,13.732
        l17.164-0.793l0,0L88.595,224.867z" style="fill: rgb(7, 35, 59);"></path>
    <path id="_17_arr" fill="#2670bf" d="M152.548,113.434c0.069-0.42,0.156-0.887,0.267-1.391c0.464-2.104,1.327-4.855,2.969-7.48
        c1.094-1.748,2.541-3.441,4.444-4.814c0.629-0.453,1.436-0.959,2.405-1.518c0.971-0.559,2.104-1.166,3.372-1.816
        c2.536-1.297,5.616-2.758,9.004-4.27c6.775-3.021,14.774-6.254,22.076-8.809c4.869-1.702,9.422-3.104,13.117-3.941
        c0.808-0.184,1.562-0.33,2.282-0.456c-1.037-4.627-1.461-9.091-1.461-13.288c0-9.21,2.028-17.137,4.057-22.773
        c1.525-4.24,3.053-7.182,3.725-8.396c-1.896,0.18-3.517,0.372-4.783,0.576l-13.072,2.245h-3.697
        c-10.225,1.121-45.555,28.786-45.555,28.786s-2.642-0.53-6.867,1.319c-4.225,1.849-10.299,6.734-16.109,13.468
        c-4.339,5.029-6.1,12.857-6.714,16.497c0.373,0.047,5.029,0.666,11.288,3.178C139.074,102.873,146.219,106.822,152.548,113.434z" style="fill: rgb(7, 35, 59);"></path>
    <path id="_12_arr" fill="#2670bf" d="M383.344,192.619c-0.181,0.443-0.646,0.714-1.127,0.6l-22.779-5.348l-0.094-0.025l-0.008-0.004
        l-0.034-0.012l-0.14-0.046l-0.561-0.177c-0.495-0.155-1.232-0.377-2.191-0.645c-1.917-0.531-4.717-1.245-8.231-1.958
        c-7.028-1.426-16.919-2.853-28.323-2.853c-3.057,0.004-5.664-0.596-8.092-1.695c-2.429-1.102-4.673-2.679-7.101-4.622
        c-1.327-1.062-2.716-2.242-4.218-3.517c-0.678,6.628-2.527,14.277-5.996,23.111c1.297,1.149,2.6,2.44,3.815,3.889
        c5.548,6.604,41.33,50.771,41.33,50.771l-5.544,3.222c10.396-5.92,18.446-10.754,19.145-11.869l23.504-16.771
        c4.326-3.914,5.017-14.524,5.017-14.524C384.151,206.088,383.531,195.207,383.344,192.619z" style="fill: rgb(7, 35, 59);"></path>
    <path id="_13_arr" fill="#2670bf" d="M291.6,200.884c-0.268,0.642-1.483,3.423-3.777,6.81c-2.598,3.839-6.582,8.467-12.18,11.582
        c-3.729,2.076-8.184,3.466-13.354,3.464c-4.847,0.002-10.315-1.238-16.406-4.188l-0.017,0.255c-0.064,1.112-0.15,2.724-0.238,4.709
        c-0.173,3.971-0.348,9.445-0.348,15.451c0,5.469,0.146,11.377,0.562,16.984c0.417,5.607,1.109,10.92,2.188,15.166
        c0.716,2.828,1.611,5.184,2.654,6.807c0.598,0.93,1.233,1.611,1.883,2.045c0.148,0.098,0.246,0.234,0.321,0.383l2.859-1.539
        l0.265-1.321l7.526-4.095l8.187,7.263c0,0,6.338,2.905,12.28,0c3.847-1.879,30.871-16.429,49.995-27.315l-40.885-50.721
        L291.6,200.884z" style="fill: rgb(7, 35, 59);"></path>
    <path id="_14_arr" fill="#2670bf" d="M249.016,278.991c-0.699-1.095-1.302-2.386-1.832-3.845c-1.06-2.914-1.832-6.496-2.406-10.455
        c-1.145-7.916-1.477-17.34-1.478-25.727c0-10.238,0.499-18.922,0.652-21.346c-8.654-4.148-16.351-7.16-22.794-9.551
        c-5.27-1.955-9.684-3.492-13.156-4.932l-0.473,0.508c-0.532,0.572-1.307,1.404-2.275,2.457c-1.938,2.104-4.652,5.08-7.759,8.592
        c-6.214,7.019-13.998,16.168-20.266,24.678c-4.178,5.666-7.682,11.066-9.577,15.285l-0.08,0.109
        c11.734,3.612,56.258,17.403,57.804,21.137c1.585,3.83,13.337,4.227,13.337,4.227l11.883,1.453l0.486-0.262
        C250.303,280.714,249.618,279.93,249.016,278.991z" style="fill: rgb(7, 35, 59);"></path>
    <path id="_10_arr" fill="#2670bf" d="M255.992,113.553c0,3.518,0.148,6.221,0.229,7.422c6.198,2.066,10.898,3.83,14.678,5.477
        c4.694,2.047,7.975,3.92,10.896,5.947l0.93,0.629c1.754-1.139,12.479-7.982,28.131-15.271l1.178-0.537
        c-3.307-10.18-6.991-17.049-10.599-21.781c-3.735-4.895-7.372-7.523-10.512-9.233c-2.095-1.143-3.971-1.868-5.545-2.578
        c-2.222-1.001-4.647-1.5-7.556-1.501c-4.389-0.004-9.889,1.176-17.129,3.491c-1.942,3.96-3.133,8.946-3.817,13.931
        C256.184,104.565,255.992,109.576,255.992,113.553z" style="fill: rgb(7, 35, 59);"></path>
    <path id="_18_arr" fill="#2670bf" d="M220.979,34.288c0.018,0.202-0.01,0.41-0.123,0.596l-0.004,0.007l0,0l-0.015,0.025l-0.062,0.105
        l-0.243,0.429c-0.212,0.383-0.517,0.953-0.886,1.697c-0.734,1.487-1.72,3.664-2.703,6.4c-1.971,5.474-3.939,13.185-3.938,22.102
        c0,4.109,0.421,8.475,1.447,13.002c0.415-0.044,0.81-0.071,1.183-0.085c0.732-0.027,1.428-0.039,2.09-0.039
        c3.582,0,6.217,0.365,8.278,0.969c2.062,0.601,3.544,1.447,4.753,2.324c0.807,0.584,1.495,1.175,2.172,1.714
        c0.873,0.698,2.105,1.527,3.897,2.196c1.793,0.666,4.147,1.17,7.265,1.17c3.709,0,8.495-0.717,14.648-2.741
        c8.01-2.631,14.057-4.012,19.085-4.015c2.487-0.002,4.727,0.351,6.794,1.059l0.162-0.166c0.382-0.396,0.934-0.995,1.599-1.799
        c1.33-1.608,3.114-4.033,4.899-7.275c3.57-6.487,7.152-16.23,7.154-29.287c0-3.342-0.234-6.902-0.767-10.681l0.007-0.11
        l-0.066,0.003L220.979,34.288z" style="fill: rgb(7, 35, 59);"></path>
    <path id="_9_arr" fill="#2670bf" d="M215.706,80.546c-0.244,0.008-0.511,0.027-0.786,0.052c2.189,8.588,3.083,16.2,3.083,22.885
        c0.002,8.777-1.532,15.96-3.646,21.689c0.369-0.268,0.768-0.545,1.199-0.834l0.012-0.049c0.176-0.369,0.551-0.58,0.935-0.564
        c0.64-0.402,1.327-0.814,2.074-1.229c4.677-2.584,11.444-5.176,19.78-5.176c4.02,0,8.397,0.604,13.067,2.094
        c0.955,0.305,1.875,0.602,2.771,0.893c-0.081-1.439-0.184-3.816-0.184-6.754c0-4.043,0.191-9.131,0.9-14.273
        c0.617-4.461,1.618-8.959,3.247-12.864c-5.741,1.784-10.362,2.465-14.07,2.465c-3.33,0.002-5.935-0.541-7.955-1.293
        c-2.021-0.751-3.456-1.713-4.444-2.505c-1.068-0.858-2.016-1.692-3.246-2.411c-1.23-0.718-2.762-1.345-5.047-1.741
        c-1.52-0.265-3.375-0.423-5.672-0.423C217.085,80.508,216.413,80.52,215.706,80.546z" style="fill: rgb(7, 35, 59);"></path>
    <path id="_19_arr" fill="#2670bf" d="M299.129,89.831c4.969,4.84,10.215,12.795,14.713,26.561c16.583-7.471,38.022-15.053,60.06-17.137
        l-0.504-0.551c0,0,0.264-4.359-3.434-5.547c-3.697-1.188-12.669-2.633-15.581-10.696l-3.697-13.335l-4.225-23.77
        c0,0-2.51-10.96-15.715-12.544c-10.659-1.28-25.7-1.096-31.104-0.977c0.531,3.825,0.771,7.441,0.771,10.841
        c0.001,13.424-3.694,23.515-7.401,30.243c-2.52,4.574-5.039,7.594-6.416,9.079c1.441,0.636,3.241,1.36,5.274,2.467
        C294.092,85.672,296.568,87.338,299.129,89.831z" style="fill: rgb(7, 35, 59);"></path>
    <path id="_20_arr" fill="#2670bf" d="M360.269,186.032l22.398,5.26c0.289,0.067,0.509,0.258,0.638,0.5c0.101-4.792,1.407-74.753-7.136-90.052
        l-0.785-0.859c-0.153,0.141-0.344,0.246-0.567,0.266c-21.962,1.949-43.514,9.548-60.155,17.048L360.269,186.032z" style="fill: rgb(7, 35, 59);"></path>
    <path id="couronne" fill="#2670bf" d="M66.748,190.398c0,0-3.521,10.939-2.141,18.854c1.381,7.916,1.465,12.521,6.98,16.322
        c5.516,3.799,15.148,3.155,15.148,3.155s-23.146,36.387-43.83,37.901c-11.775,0.863-24.27-8.129-31.977-18.771
        C3.221,237.22,2.863,223.51,2.863,223.51s3.779-38.593,4.139-45.46c0.359-6.866-3.139-14.276-3.139-14.276
        s29.951,9.631,33.834,11.136c3.881,1.506,2.57,7.161,6.494,9.563C48.117,186.875,66.748,190.398,66.748,190.398L66.748,190.398z
        M117.396,100.984c0,0,1.787-9.205,5.063-15.366c3.277-6.16,7.879-10.748,7.879-10.748L96.309,27.162
        c0,0-31.719,19.004-43.646,34.603C40.734,77.362,38.23,84.506,38.23,84.506l-7.812,19.9l18.25,6.65l10.305-20.117L117.396,100.984z
        " style="fill: rgb(7, 35, 59);"></path>
    <path id="couronne-1" fill="#D7D3D4" d="M131.982,72.327l-31.209-46.976c0,0,29.473-14.194,48.56-18.21C168.421,3.126,227.436,2,227.436,2h79.787
        c0,0,46.711,3.283,57.112,10.355c10.403,7.072,24.442,19.375,28.314,43.848c4.101,25.923,5.036,143.711,1.684,171.797
        c-2.083,17.445-8.083,33.5-14.583,40c-7.458,7.458-38.781,22.66-56.75,29.25l-81.287,8.3c0,0-81.968-1.926-101.411-2.873
        c-19.442-0.946-55.493-5.448-71.052-11.231c-15.555-5.781-25.838-21.853-25.838-21.853s13.775-3.405,23.066-11.926
        c7.324-6.717,27.835-30.979,27.835-30.979l6.562,5.625c-10.125,8.812-1.625,17,4.312,14.625
        c5.889-2.354,6.767-10.432,14.125-10.938c7.355-0.508,28.551,14.848,46.688,20.188c8.16,2.402,33.428,11.151,48.875,16.25
        c10.501,3.467,6.204,5.484,13.533,8.218c11.154,4.157,23.505,3.097,23.505,3.097l11.712-6.251c7.312,5.688,10.111,8.965,17.875,6.5
        c7.761-2.467,36.503-17.213,47.688-24.5s24.569-15.164,31.438-20.625c6.868-5.459,17.188-10.714,20.5-15.688
        c4.332-6.506,5.132-24.514,5.312-42.125c0.215-20.849-1.657-41.142-1.657-41.142s-0.529-28.358-9.78-44.271
        c-2.879-4.952-12.722-6.033-15.936-8.775c-3.217-2.743-6.312-17.812-6.312-17.812L349,44.812c0,0-3.848-11.542-14.609-13.494
        c-10.688-1.938-34.828-2.131-34.828-2.131s-88.875-1.312-108.312,6.625c-7.088,2.895-39.688,25.438-39.688,25.438
        C142.628,58.5,131.982,72.327,131.982,72.327L131.982,72.327z"></path>
    <path id="couronne-2" fill="#D7D3D4" d="M30.418,107.576L5.023,160.248c0,0,28.5,7.443,33.5,9.125c5.002,1.684,6.324,12.247,9.275,13.018
        c2.953,0.77,18.83,6.332,22.027,6c3.199-0.334,8.697-6,8.697-6s11.09-35.965,12.213-38.981c1.121-3.018,4.973-4.025,4.973-4.025
        l19.674-36.543l-55.18-9.451l-10.68,21.668L30.418,107.576L30.418,107.576z"></path>

      <!-- Legendes -->
    <text transform="matrix(1 0 0 1 225.623 147.5176)" fill="#FFFFFF" font-family="'PTSerif-Regular'" font-size="15.692">1</text>
    <text transform="matrix(1 0 0 1 243.0586 134.4414)" fill="#FFFFFF" font-family="'PTSerif-Regular'" font-size="15.692">2</text>
    <text transform="matrix(1 0 0 1 277.9297 150.1328)" fill="#FFFFFF" font-family="'PTSerif-Regular'" font-size="15.692">3</text>
    <text transform="matrix(1 0 0 1 270.083 168.4404)" fill="#FFFFFF" font-family="'PTSerif-Regular'" font-size="15.692">4</text>
    <text transform="matrix(1 0 0 1 255.2637 203.3096)" fill="#FFFFFF" font-family="'PTSerif-Regular'" font-size="15.692">5</text>
    <text transform="matrix(1 0 0 1 222.1367 191.1064)" fill="#FFFFFF" font-family="'PTSerif-Regular'" font-size="15.692">6</text>
    <text transform="matrix(1 0 0 1 181.1631 168.4404)" fill="#FFFFFF" font-family="'PTSerif-Regular'" font-size="15.692">7</text>
    <text transform="matrix(1 0 0 1 185.02 118.3682)" fill="#FFFFFF" font-family="'PTSerif-Regular'" font-size="15.692">8</text>
    <text transform="matrix(1 0 0 1 231.7656 109.7598)" fill="#FFFFFF" font-family="'PTSerif-Regular'" font-size="15.692">9</text>
    <text transform="matrix(1 0 0 1 272.6982 111.9707)" fill="#FFFFFF" font-family="'PTSerif-Regular'" font-size="15.692">10</text>
    <text transform="matrix(1 0 0 1 309.293 158.9648)" fill="#FFFFFF" font-family="'PTSerif-Regular'" font-size="15.692">11</text>
    <text transform="matrix(1 0 0 1 330.1094 211.8828)" fill="#FFFFFF" font-family="'PTSerif-Regular'" font-size="15.692">12</text>
    <text transform="matrix(1 0 0 1 279.4658 248.4971)" fill="#FFFFFF" font-family="'PTSerif-Regular'" font-size="15.692">13</text>
    <text transform="matrix(1 0 0 1 204.1973 245.4453)" fill="#FFFFFF" font-family="'PTSerif-Regular'" font-size="15.692">14</text>
    <text transform="matrix(1 0 0 1 142.4902 214.9336)" fill="#FFFFFF" font-family="'PTSerif-Regular'" font-size="15.692">15</text>
    <text transform="matrix(1 0 0 1 101.9531 162.9854)" fill="#FFFFFF" font-family="'PTSerif-Regular'" font-size="15.692">16</text>
    <text transform="matrix(1 0 0 1 167.4351 79.9326)" fill="#FFFFFF" font-family="'PTSerif-Regular'" font-size="15.692">17</text>
    <text transform="matrix(1 0 0 1 246.5732 61.7734)" fill="#FFFFFF" font-family="'PTSerif-Regular'" font-size="15.692">18</text>
    <text transform="matrix(1 0 0 1 318.9297 81.1924)" fill="#FFFFFF" font-family="'PTSerif-Regular'" font-size="15.692">19</text>
    <text transform="matrix(1 0 0 1 350.749 147.5176)" fill="#FFFFFF" font-family="'PTSerif-Regular'" font-size="15.692">20</text>
    <g id="Calque_28">
        <g id="Boulogne" enable-background="new">
            <path fill="#FFFFFF" d="M15.858,221.824v-0.29c0.267-0.127,0.54-0.206,0.82-0.24v-5.93c-0.133-0.026-0.27-0.062-0.41-0.105
                c-0.14-0.043-0.277-0.091-0.41-0.145v-0.29h1.06c0.126,0,0.248-0.003,0.365-0.01s0.238-0.014,0.365-0.021
                c0.126-0.006,0.263-0.013,0.41-0.02c0.146-0.007,0.313-0.01,0.5-0.01c0.266,0,0.538,0.021,0.815,0.064
                c0.276,0.044,0.526,0.125,0.75,0.245c0.223,0.12,0.405,0.288,0.545,0.505s0.21,0.499,0.21,0.845c0,0.174-0.027,0.347-0.08,0.521
                c-0.053,0.173-0.135,0.335-0.245,0.485c-0.11,0.149-0.249,0.281-0.415,0.395s-0.363,0.196-0.59,0.25v0.04
                c0.2,0.033,0.398,0.09,0.595,0.17c0.196,0.08,0.372,0.188,0.525,0.325s0.278,0.305,0.375,0.505s0.145,0.44,0.145,0.72
                c0,0.36-0.08,0.67-0.24,0.931c-0.16,0.26-0.368,0.473-0.625,0.64s-0.548,0.288-0.875,0.365c-0.327,0.076-0.657,0.114-0.99,0.114
                c-0.233,0-0.497-0.01-0.79-0.029c-0.293-0.021-0.577-0.03-0.85-0.03H15.858z M18.078,218.004c0.113,0,0.249-0.005,0.405-0.015
                s0.285-0.021,0.385-0.035c0.307-0.106,0.559-0.278,0.755-0.515c0.196-0.236,0.295-0.516,0.295-0.835
                c0-0.44-0.132-0.771-0.395-0.99c-0.264-0.22-0.615-0.33-1.055-0.33c-0.207,0-0.383,0.004-0.53,0.01
                c-0.147,0.007-0.267,0.017-0.36,0.03v2.68H18.078z M18.528,221.364c0.24,0,0.465-0.036,0.675-0.11
                c0.21-0.073,0.39-0.175,0.54-0.305c0.15-0.13,0.269-0.286,0.355-0.47c0.087-0.184,0.13-0.382,0.13-0.596
                c0-0.267-0.052-0.488-0.155-0.665c-0.104-0.176-0.243-0.316-0.42-0.42c-0.177-0.103-0.38-0.175-0.61-0.215s-0.469-0.06-0.715-0.06
                h-0.75v2.76c0.094,0.026,0.205,0.047,0.335,0.06C18.043,221.357,18.248,221.364,18.528,221.364z"></path>
            <path fill="#FFFFFF" d="M22.128,219.324c0-0.42,0.055-0.792,0.165-1.115c0.11-0.323,0.268-0.597,0.475-0.819
                c0.207-0.224,0.455-0.394,0.745-0.511c0.29-0.116,0.612-0.175,0.965-0.175c0.414,0,0.77,0.063,1.07,0.19
                c0.3,0.126,0.545,0.305,0.735,0.535c0.19,0.229,0.33,0.505,0.42,0.824c0.09,0.32,0.135,0.677,0.135,1.07
                c0,0.84-0.213,1.486-0.64,1.94c-0.427,0.453-1,0.68-1.72,0.68c-0.4,0-0.747-0.062-1.04-0.186c-0.293-0.123-0.537-0.3-0.73-0.529
                c-0.194-0.23-0.339-0.507-0.435-0.83C22.176,220.076,22.128,219.718,22.128,219.324z M23.088,219.324
                c0,0.3,0.028,0.583,0.085,0.85c0.057,0.268,0.146,0.499,0.27,0.695c0.123,0.197,0.285,0.352,0.485,0.465s0.44,0.17,0.72,0.17
                c0.36,0,0.655-0.176,0.885-0.529s0.345-0.903,0.345-1.65c0-0.307-0.029-0.592-0.085-0.855c-0.057-0.263-0.145-0.493-0.265-0.689
                s-0.273-0.352-0.46-0.465c-0.187-0.113-0.41-0.17-0.67-0.17c-0.394,0-0.71,0.177-0.95,0.529
                C23.208,218.027,23.088,218.578,23.088,219.324z"></path>
            <path fill="#FFFFFF" d="M28.018,219.844c0-0.42,0.01-0.831,0.03-1.234s0.03-0.805,0.03-1.205l-0.66-0.08v-0.26
                c0.213-0.08,0.432-0.15,0.655-0.21c0.223-0.061,0.441-0.11,0.655-0.15h0.25c0,0.5-0.01,0.997-0.03,1.49s-0.03,0.983-0.03,1.47
                c0,0.26,0.015,0.493,0.045,0.7c0.03,0.207,0.083,0.38,0.16,0.52c0.077,0.141,0.182,0.249,0.315,0.325
                c0.133,0.077,0.303,0.115,0.51,0.115c0.3,0,0.551-0.108,0.755-0.325c0.203-0.217,0.361-0.498,0.475-0.845v-2.75l-0.65-0.08v-0.26
                c0.207-0.08,0.422-0.15,0.645-0.21c0.224-0.061,0.442-0.11,0.655-0.15h0.25v4.55l0.66,0.08v0.21
                c-0.194,0.087-0.389,0.164-0.585,0.23c-0.196,0.066-0.401,0.116-0.615,0.149h-0.25l-0.07-1.189h-0.04
                c-0.034,0.14-0.092,0.281-0.175,0.425s-0.191,0.273-0.325,0.39c-0.134,0.117-0.285,0.212-0.455,0.285s-0.355,0.11-0.555,0.11
                c-0.267,0-0.501-0.032-0.705-0.095c-0.203-0.063-0.375-0.176-0.515-0.335c-0.14-0.16-0.247-0.375-0.32-0.646
                C28.054,220.6,28.018,220.258,28.018,219.844z"></path>
            <path fill="#FFFFFF" d="M35.618,221.824h-2.22v-0.25c0.22-0.106,0.44-0.187,0.66-0.24v-6.33l-0.76-0.08v-0.26
                c0.173-0.08,0.39-0.149,0.65-0.21c0.26-0.06,0.513-0.11,0.76-0.149h0.25v7.029c0.22,0.054,0.44,0.134,0.66,0.24V221.824z"></path>
            <path fill="#FFFFFF" d="M36.408,219.324c0-0.42,0.055-0.792,0.165-1.115c0.11-0.323,0.268-0.597,0.475-0.819
                c0.207-0.224,0.455-0.394,0.745-0.511c0.29-0.116,0.612-0.175,0.965-0.175c0.414,0,0.77,0.063,1.07,0.19
                c0.3,0.126,0.545,0.305,0.735,0.535c0.19,0.229,0.33,0.505,0.42,0.824c0.09,0.32,0.135,0.677,0.135,1.07
                c0,0.84-0.213,1.486-0.64,1.94c-0.427,0.453-1,0.68-1.72,0.68c-0.4,0-0.747-0.062-1.04-0.186c-0.293-0.123-0.537-0.3-0.73-0.529
                c-0.194-0.23-0.339-0.507-0.435-0.83C36.456,220.076,36.408,219.718,36.408,219.324z M37.368,219.324
                c0,0.3,0.028,0.583,0.085,0.85c0.057,0.268,0.146,0.499,0.27,0.695c0.123,0.197,0.285,0.352,0.485,0.465s0.44,0.17,0.72,0.17
                c0.36,0,0.655-0.176,0.885-0.529s0.345-0.903,0.345-1.65c0-0.307-0.029-0.592-0.085-0.855c-0.057-0.263-0.145-0.493-0.265-0.689
                s-0.273-0.352-0.46-0.465c-0.187-0.113-0.41-0.17-0.67-0.17c-0.394,0-0.71,0.177-0.95,0.529
                C37.488,218.027,37.368,218.578,37.368,219.324z"></path>
            <path fill="#FFFFFF" d="M43.998,216.704c0.36,0,0.663,0.035,0.91,0.105c0.247,0.069,0.454,0.178,0.62,0.324
                c0.393-0.267,0.803-0.46,1.23-0.579c0.053,0.073,0.092,0.163,0.115,0.27c0.023,0.106,0.035,0.207,0.035,0.3l-0.13,0.24h-1.05
                c0.167,0.24,0.25,0.557,0.25,0.95c0,0.479-0.168,0.87-0.505,1.17c-0.336,0.3-0.828,0.45-1.475,0.45
                c-0.127,0-0.23-0.004-0.31-0.011c-0.08-0.006-0.17-0.017-0.27-0.029c-0.034,0.06-0.072,0.126-0.115,0.199
                c-0.043,0.074-0.065,0.15-0.065,0.23c0,0.134,0.077,0.238,0.23,0.315c0.153,0.076,0.345,0.145,0.575,0.204
                c0.23,0.061,0.48,0.122,0.75,0.186s0.521,0.15,0.755,0.26c0.233,0.11,0.428,0.254,0.585,0.43c0.157,0.177,0.238,0.405,0.245,0.686
                c0.006,0.24-0.048,0.456-0.165,0.65c-0.117,0.192-0.278,0.354-0.485,0.484c-0.207,0.13-0.455,0.23-0.745,0.3
                c-0.29,0.07-0.608,0.105-0.955,0.105c-0.727,0-1.275-0.124-1.645-0.37c-0.37-0.247-0.555-0.557-0.555-0.93
                c0-0.181,0.028-0.337,0.085-0.471c0.057-0.133,0.139-0.25,0.245-0.35s0.24-0.188,0.4-0.265c0.16-0.077,0.343-0.148,0.55-0.216
                c-0.147-0.066-0.269-0.158-0.365-0.274s-0.145-0.259-0.145-0.425c0-0.153,0.065-0.306,0.195-0.455
                c0.13-0.15,0.261-0.269,0.395-0.355c-0.38-0.1-0.672-0.29-0.875-0.569c-0.204-0.28-0.305-0.597-0.305-0.95
                c0-0.227,0.043-0.438,0.13-0.635c0.087-0.197,0.213-0.369,0.38-0.516c0.167-0.146,0.373-0.26,0.62-0.34
                S43.67,216.704,43.998,216.704z M45.478,222.634c0-0.213-0.072-0.383-0.215-0.51c-0.143-0.127-0.322-0.229-0.535-0.31
                c-0.214-0.08-0.444-0.146-0.69-0.2s-0.477-0.113-0.69-0.18c-0.253,0.153-0.42,0.314-0.5,0.484c-0.08,0.17-0.12,0.346-0.12,0.525
                c0,0.354,0.126,0.618,0.38,0.795s0.62,0.265,1.1,0.265c0.247,0,0.451-0.023,0.615-0.069c0.164-0.047,0.293-0.108,0.39-0.186
                c0.097-0.076,0.165-0.168,0.205-0.274C45.458,222.867,45.478,222.754,45.478,222.634z M42.907,218.314
                c0,0.16,0.019,0.312,0.055,0.455s0.097,0.269,0.18,0.375c0.083,0.106,0.195,0.191,0.335,0.255c0.14,0.063,0.313,0.095,0.52,0.095
                c0.386,0,0.663-0.113,0.83-0.34c0.167-0.227,0.25-0.507,0.25-0.84c0-0.36-0.082-0.646-0.245-0.855
                c-0.164-0.21-0.442-0.314-0.835-0.314c-0.407,0-0.69,0.102-0.85,0.305C42.987,217.652,42.907,217.941,42.907,218.314z"></path>
            <path fill="#FFFFFF" d="M52.558,221.824h-2.15v-0.25c0.18-0.094,0.376-0.173,0.59-0.24v-2.37c0-0.506-0.073-0.906-0.22-1.199
                c-0.147-0.294-0.414-0.44-0.8-0.44c-0.167,0-0.322,0.03-0.465,0.09c-0.144,0.061-0.27,0.142-0.38,0.245
                c-0.11,0.104-0.205,0.22-0.285,0.35c-0.08,0.131-0.144,0.266-0.19,0.405v2.92c0.207,0.04,0.406,0.12,0.6,0.24v0.25h-2.16v-0.25
                c0.167-0.087,0.387-0.167,0.66-0.24v-3.93l-0.66-0.08v-0.26c0.173-0.073,0.373-0.141,0.6-0.2c0.227-0.06,0.463-0.113,0.71-0.16
                h0.25v1.12h0.01c0.14-0.307,0.342-0.57,0.605-0.79s0.582-0.33,0.955-0.33c0.267,0,0.505,0.032,0.715,0.095
                c0.21,0.063,0.385,0.176,0.525,0.335c0.14,0.16,0.247,0.375,0.32,0.646c0.073,0.27,0.11,0.611,0.11,1.025v2.529
                c0.267,0.047,0.487,0.127,0.66,0.24V221.824z"></path>
            <path fill="#FFFFFF" d="M57.187,221.124c-0.053,0.113-0.137,0.22-0.25,0.32c-0.113,0.1-0.243,0.187-0.39,0.26
                c-0.146,0.073-0.307,0.132-0.48,0.175c-0.173,0.044-0.35,0.065-0.53,0.065c-0.394,0-0.74-0.062-1.04-0.186
                c-0.3-0.123-0.55-0.3-0.75-0.529c-0.2-0.23-0.352-0.505-0.455-0.825s-0.155-0.68-0.155-1.08c0-0.854,0.196-1.503,0.59-1.95
                c0.393-0.446,0.95-0.67,1.67-0.67c0.233,0,0.463,0.032,0.69,0.095c0.227,0.063,0.428,0.169,0.605,0.315s0.32,0.342,0.43,0.585
                s0.165,0.545,0.165,0.905c0,0.113-0.005,0.229-0.015,0.345c-0.01,0.117-0.028,0.242-0.055,0.375h-3.12
                c0,0.28,0.035,0.542,0.105,0.785c0.07,0.243,0.175,0.455,0.315,0.635s0.316,0.322,0.53,0.425c0.213,0.104,0.463,0.155,0.75,0.155
                c0.233,0,0.47-0.033,0.71-0.1c0.24-0.067,0.42-0.153,0.54-0.261L57.187,221.124z M55.357,217.145c-0.38,0-0.67,0.128-0.87,0.385
                c-0.2,0.257-0.32,0.708-0.36,1.354h2.2c0.006-0.06,0.011-0.118,0.015-0.175c0.003-0.057,0.005-0.111,0.005-0.165
                c0-0.427-0.08-0.767-0.24-1.02C55.947,217.271,55.697,217.145,55.357,217.145z"></path>
        </g>
        <g id="Billancourt" enable-background="new">
            <path fill="#FFFFFF" d="M15.858,233.824v-0.29c0.267-0.127,0.54-0.206,0.82-0.24v-5.93c-0.133-0.026-0.27-0.062-0.41-0.105
                c-0.14-0.043-0.277-0.091-0.41-0.145v-0.29h1.06c0.126,0,0.248-0.003,0.365-0.01s0.238-0.014,0.365-0.021
                c0.126-0.006,0.263-0.013,0.41-0.02c0.146-0.007,0.313-0.01,0.5-0.01c0.266,0,0.538,0.021,0.815,0.064
                c0.276,0.044,0.526,0.125,0.75,0.245c0.223,0.12,0.405,0.288,0.545,0.505s0.21,0.499,0.21,0.845c0,0.174-0.027,0.347-0.08,0.521
                c-0.053,0.173-0.135,0.335-0.245,0.485c-0.11,0.149-0.249,0.281-0.415,0.395s-0.363,0.196-0.59,0.25v0.04
                c0.2,0.033,0.398,0.09,0.595,0.17c0.196,0.08,0.372,0.188,0.525,0.325s0.278,0.305,0.375,0.505s0.145,0.44,0.145,0.72
                c0,0.36-0.08,0.67-0.24,0.931c-0.16,0.26-0.368,0.473-0.625,0.64s-0.548,0.288-0.875,0.365c-0.327,0.076-0.657,0.114-0.99,0.114
                c-0.233,0-0.497-0.01-0.79-0.029c-0.293-0.021-0.577-0.03-0.85-0.03H15.858z M18.078,230.004c0.113,0,0.249-0.005,0.405-0.015
                s0.285-0.021,0.385-0.035c0.307-0.106,0.559-0.278,0.755-0.515c0.196-0.236,0.295-0.516,0.295-0.835
                c0-0.44-0.132-0.771-0.395-0.99c-0.264-0.22-0.615-0.33-1.055-0.33c-0.207,0-0.383,0.004-0.53,0.01
                c-0.147,0.007-0.267,0.017-0.36,0.03v2.68H18.078z M18.528,233.364c0.24,0,0.465-0.036,0.675-0.11
                c0.21-0.073,0.39-0.175,0.54-0.305c0.15-0.13,0.269-0.286,0.355-0.47c0.087-0.184,0.13-0.382,0.13-0.596
                c0-0.267-0.052-0.488-0.155-0.665c-0.104-0.176-0.243-0.316-0.42-0.42c-0.177-0.103-0.38-0.175-0.61-0.215s-0.469-0.06-0.715-0.06
                h-0.75v2.76c0.094,0.026,0.205,0.047,0.335,0.06C18.043,233.357,18.248,233.364,18.528,233.364z"></path>
            <path fill="#FFFFFF" d="M24.348,233.824h-2.22v-0.25c0.1-0.054,0.203-0.099,0.31-0.135c0.106-0.037,0.223-0.072,0.35-0.105v-3.93
                l-0.66-0.08v-0.26c0.193-0.08,0.403-0.15,0.63-0.21c0.227-0.061,0.453-0.11,0.68-0.15h0.25v4.63
                c0.133,0.033,0.253,0.068,0.36,0.105c0.106,0.036,0.207,0.081,0.3,0.135V233.824z M22.598,227.124c0-0.18,0.059-0.323,0.175-0.43
                c0.116-0.106,0.271-0.16,0.465-0.16s0.347,0.054,0.46,0.16s0.17,0.25,0.17,0.43c0,0.181-0.057,0.322-0.17,0.425
                c-0.113,0.104-0.267,0.155-0.46,0.155s-0.349-0.052-0.465-0.155C22.656,227.446,22.598,227.305,22.598,227.124z"></path>
            <path fill="#FFFFFF" d="M27.357,233.824h-2.22v-0.25c0.22-0.106,0.44-0.187,0.66-0.24v-6.33l-0.76-0.08v-0.26
                c0.173-0.08,0.39-0.149,0.65-0.21c0.26-0.06,0.513-0.11,0.76-0.149h0.25v7.029c0.22,0.054,0.44,0.134,0.66,0.24V233.824z"></path>
            <path fill="#FFFFFF" d="M30.368,233.824h-2.22v-0.25c0.22-0.106,0.44-0.187,0.66-0.24v-6.33l-0.76-0.08v-0.26
                c0.173-0.08,0.39-0.149,0.65-0.21c0.26-0.06,0.513-0.11,0.76-0.149h0.25v7.029c0.22,0.054,0.44,0.134,0.66,0.24V233.824z"></path>
            <path fill="#FFFFFF" d="M34.848,232.515c0,0.146,0.003,0.273,0.01,0.38c0.007,0.106,0.013,0.22,0.02,0.34l0.69,0.1v0.21
                c-0.167,0.087-0.352,0.164-0.555,0.23c-0.204,0.066-0.398,0.116-0.585,0.149h-0.25c-0.067-0.153-0.107-0.321-0.12-0.505
                c-0.014-0.183-0.023-0.385-0.03-0.604h-0.05c-0.027,0.133-0.079,0.269-0.155,0.404c-0.077,0.137-0.177,0.259-0.3,0.365
                c-0.124,0.107-0.269,0.193-0.435,0.26c-0.167,0.067-0.356,0.101-0.57,0.101c-0.407,0-0.738-0.123-0.995-0.37
                c-0.257-0.246-0.385-0.57-0.385-0.97c0-0.307,0.062-0.559,0.185-0.755c0.123-0.197,0.305-0.352,0.545-0.466
                c0.24-0.113,0.537-0.194,0.89-0.244c0.354-0.051,0.764-0.089,1.23-0.115c0.026-0.287,0.035-0.545,0.025-0.775
                c-0.01-0.229-0.047-0.427-0.11-0.59c-0.063-0.163-0.157-0.29-0.28-0.38c-0.124-0.09-0.285-0.135-0.485-0.135
                c-0.094,0-0.199,0.005-0.315,0.015c-0.117,0.01-0.232,0.038-0.345,0.085l-0.47,1.2h-0.26c-0.067-0.2-0.125-0.406-0.175-0.62
                c-0.05-0.213-0.082-0.423-0.095-0.63c0.253-0.153,0.535-0.273,0.845-0.36c0.31-0.086,0.655-0.13,1.035-0.13
                c0.34,0,0.612,0.049,0.815,0.146c0.204,0.097,0.358,0.222,0.465,0.375c0.106,0.153,0.176,0.323,0.21,0.51
                c0.033,0.187,0.05,0.373,0.05,0.56c0,0.4-0.008,0.785-0.025,1.155S34.848,232.174,34.848,232.515z M32.917,233.324
                c0.167,0,0.313-0.033,0.44-0.1c0.126-0.067,0.233-0.146,0.32-0.24c0.086-0.094,0.156-0.188,0.21-0.285
                c0.053-0.097,0.09-0.179,0.11-0.245v-1.05c-0.387,0-0.704,0.02-0.95,0.06s-0.44,0.104-0.58,0.19
                c-0.14,0.087-0.237,0.195-0.29,0.325c-0.054,0.13-0.08,0.278-0.08,0.444c0,0.287,0.073,0.509,0.22,0.665
                C32.464,233.246,32.664,233.324,32.917,233.324z"></path>
            <path fill="#FFFFFF" d="M41.567,233.824h-2.15v-0.25c0.18-0.094,0.376-0.173,0.59-0.24v-2.37c0-0.506-0.073-0.906-0.22-1.199
                c-0.147-0.294-0.414-0.44-0.8-0.44c-0.167,0-0.322,0.03-0.465,0.09c-0.144,0.061-0.27,0.142-0.38,0.245
                c-0.11,0.104-0.205,0.22-0.285,0.35c-0.08,0.131-0.144,0.266-0.19,0.405v2.92c0.207,0.04,0.406,0.12,0.6,0.24v0.25h-2.16v-0.25
                c0.167-0.087,0.387-0.167,0.66-0.24v-3.93l-0.66-0.08v-0.26c0.173-0.073,0.373-0.141,0.6-0.2c0.227-0.06,0.463-0.113,0.71-0.16
                h0.25v1.12h0.01c0.14-0.307,0.342-0.57,0.605-0.79s0.582-0.33,0.955-0.33c0.267,0,0.505,0.032,0.715,0.095
                c0.21,0.063,0.385,0.176,0.525,0.335c0.14,0.16,0.247,0.375,0.32,0.646c0.073,0.27,0.11,0.611,0.11,1.025v2.529
                c0.267,0.047,0.487,0.127,0.66,0.24V233.824z"></path>
            <path fill="#FFFFFF" d="M46.007,233.124c-0.12,0.233-0.315,0.429-0.585,0.585c-0.27,0.157-0.585,0.235-0.945,0.235
                c-0.394,0-0.735-0.062-1.025-0.186c-0.29-0.123-0.532-0.3-0.725-0.529c-0.194-0.23-0.339-0.507-0.435-0.83
                c-0.097-0.323-0.145-0.682-0.145-1.075c0-0.847,0.207-1.495,0.62-1.945c0.414-0.449,0.977-0.675,1.69-0.675
                c0.326,0,0.618,0.028,0.875,0.085c0.256,0.057,0.475,0.132,0.655,0.226c-0.02,0.22-0.057,0.466-0.11,0.739
                c-0.054,0.273-0.12,0.5-0.2,0.681h-0.27l-0.42-1.19c-0.047-0.033-0.1-0.059-0.16-0.075s-0.16-0.024-0.3-0.024
                c-0.454,0-0.804,0.165-1.05,0.495c-0.247,0.329-0.37,0.888-0.37,1.675c0,0.253,0.035,0.5,0.105,0.74
                c0.07,0.239,0.176,0.454,0.32,0.645s0.323,0.342,0.54,0.455s0.468,0.17,0.755,0.17c0.233,0,0.437-0.033,0.61-0.1
                c0.173-0.067,0.32-0.146,0.44-0.24L46.007,233.124z"></path>
            <path fill="#FFFFFF" d="M46.808,231.324c0-0.42,0.055-0.792,0.165-1.115c0.11-0.323,0.268-0.597,0.475-0.819
                c0.207-0.224,0.455-0.394,0.745-0.511c0.29-0.116,0.612-0.175,0.965-0.175c0.414,0,0.77,0.063,1.07,0.19
                c0.3,0.126,0.545,0.305,0.735,0.535c0.19,0.229,0.33,0.505,0.42,0.824c0.09,0.32,0.135,0.677,0.135,1.07
                c0,0.84-0.213,1.486-0.64,1.94c-0.427,0.453-1,0.68-1.72,0.68c-0.4,0-0.747-0.062-1.04-0.186c-0.293-0.123-0.537-0.3-0.73-0.529
                c-0.194-0.23-0.339-0.507-0.435-0.83C46.856,232.076,46.808,231.718,46.808,231.324z M47.768,231.324
                c0,0.3,0.028,0.583,0.085,0.85c0.057,0.268,0.146,0.499,0.27,0.695c0.123,0.197,0.285,0.352,0.485,0.465s0.44,0.17,0.72,0.17
                c0.36,0,0.655-0.176,0.885-0.529s0.345-0.903,0.345-1.65c0-0.307-0.029-0.592-0.085-0.855c-0.057-0.263-0.145-0.493-0.265-0.689
                s-0.273-0.352-0.46-0.465c-0.187-0.113-0.41-0.17-0.67-0.17c-0.394,0-0.71,0.177-0.95,0.529
                C47.888,230.027,47.768,230.578,47.768,231.324z"></path>
            <path fill="#FFFFFF" d="M52.697,231.844c0-0.42,0.01-0.831,0.03-1.234s0.03-0.805,0.03-1.205l-0.66-0.08v-0.26
                c0.213-0.08,0.432-0.15,0.655-0.21c0.223-0.061,0.441-0.11,0.655-0.15h0.25c0,0.5-0.01,0.997-0.03,1.49s-0.03,0.983-0.03,1.47
                c0,0.26,0.015,0.493,0.045,0.7c0.03,0.207,0.083,0.38,0.16,0.52c0.077,0.141,0.182,0.249,0.315,0.325
                c0.133,0.077,0.303,0.115,0.51,0.115c0.3,0,0.551-0.108,0.755-0.325c0.203-0.217,0.361-0.498,0.475-0.845v-2.75l-0.65-0.08v-0.26
                c0.207-0.08,0.422-0.15,0.645-0.21c0.224-0.061,0.442-0.11,0.655-0.15h0.25v4.55l0.66,0.08v0.21
                c-0.194,0.087-0.389,0.164-0.585,0.23c-0.196,0.066-0.401,0.116-0.615,0.149h-0.25l-0.07-1.189h-0.04
                c-0.034,0.14-0.092,0.281-0.175,0.425s-0.191,0.273-0.325,0.39c-0.134,0.117-0.285,0.212-0.455,0.285s-0.355,0.11-0.555,0.11
                c-0.267,0-0.501-0.032-0.705-0.095c-0.203-0.063-0.375-0.176-0.515-0.335c-0.14-0.16-0.247-0.375-0.32-0.646
                C52.734,232.6,52.697,232.258,52.697,231.844z"></path>
            <path fill="#FFFFFF" d="M60.107,229.574c-0.073,0.04-0.165,0.122-0.275,0.245s-0.208,0.305-0.295,0.545v2.97
                c0.133,0.014,0.267,0.039,0.4,0.075c0.133,0.037,0.267,0.092,0.4,0.165v0.25h-2.36v-0.25c0.12-0.066,0.233-0.116,0.34-0.15
                c0.106-0.033,0.213-0.062,0.32-0.09v-3.93l-0.66-0.08v-0.26c0.213-0.094,0.433-0.169,0.66-0.226
                c0.227-0.057,0.443-0.102,0.65-0.135h0.25v1.061h0.04c0.06-0.134,0.145-0.267,0.255-0.4s0.236-0.253,0.38-0.36
                c0.144-0.106,0.3-0.188,0.47-0.245c0.17-0.056,0.345-0.074,0.525-0.055c0.046,0.087,0.088,0.182,0.125,0.285
                s0.071,0.212,0.105,0.325v0.26H60.107z"></path>
            <path fill="#FFFFFF" d="M61.657,229.075c0.253-0.165,0.52-0.282,0.8-0.351v-0.851c0.086-0.066,0.188-0.132,0.305-0.194
                c0.117-0.063,0.231-0.119,0.345-0.165h0.25v1.31h1.5v0.52h-1.5v2.886c0,0.398,0.063,0.681,0.19,0.846
                c0.126,0.166,0.316,0.249,0.57,0.249c0.12,0,0.27-0.008,0.45-0.025c0.18-0.017,0.333-0.048,0.46-0.095l0.07,0.15
                c-0.053,0.06-0.128,0.123-0.225,0.189c-0.097,0.067-0.207,0.13-0.33,0.19c-0.124,0.06-0.259,0.109-0.405,0.149
                s-0.296,0.061-0.45,0.061c-0.4,0-0.705-0.113-0.915-0.339s-0.315-0.591-0.315-1.095v-3.167h-0.8V229.075z"></path>
        </g>
        <g id="Neuilly" enable-background="new">
            <path fill="#FFFFFF" d="M72.559,61.591h2.16v0.29c-0.28,0.187-0.553,0.32-0.82,0.4v6.43h-0.57l-3.63-5.51l-0.39-0.78h-0.03
                l0.09,0.78v4.75c0.273,0.073,0.53,0.189,0.77,0.35v0.29h-2.16v-0.29c0.12-0.073,0.248-0.139,0.385-0.195s0.282-0.108,0.435-0.154
                v-5.73c-0.133-0.053-0.265-0.11-0.395-0.17c-0.13-0.06-0.251-0.12-0.365-0.18v-0.28h1.69l3.15,4.75l0.46,0.86h0.04l-0.05-0.86
                v-4.06c-0.14-0.061-0.275-0.124-0.405-0.19c-0.13-0.066-0.251-0.137-0.365-0.21V61.591z"></path>
            <path fill="#FFFFFF" d="M79.469,67.891c-0.053,0.113-0.137,0.22-0.25,0.32c-0.113,0.1-0.243,0.187-0.39,0.26
                c-0.146,0.073-0.307,0.132-0.48,0.175c-0.173,0.044-0.35,0.065-0.53,0.065c-0.394,0-0.74-0.062-1.04-0.186
                c-0.3-0.123-0.55-0.3-0.75-0.529c-0.2-0.23-0.352-0.505-0.455-0.825s-0.155-0.68-0.155-1.08c0-0.854,0.196-1.503,0.59-1.95
                c0.393-0.446,0.95-0.67,1.67-0.67c0.233,0,0.463,0.032,0.69,0.095c0.227,0.063,0.428,0.169,0.605,0.315s0.32,0.342,0.43,0.585
                s0.165,0.545,0.165,0.905c0,0.113-0.005,0.229-0.015,0.345c-0.01,0.117-0.028,0.242-0.055,0.375h-3.12
                c0,0.28,0.035,0.542,0.105,0.785c0.07,0.243,0.175,0.455,0.315,0.635s0.316,0.322,0.53,0.425c0.213,0.104,0.463,0.155,0.75,0.155
                c0.233,0,0.47-0.033,0.71-0.1c0.24-0.067,0.42-0.153,0.54-0.261L79.469,67.891z M77.639,63.911c-0.38,0-0.67,0.128-0.87,0.385
                c-0.2,0.257-0.32,0.708-0.36,1.354h2.2c0.006-0.06,0.011-0.118,0.015-0.175c0.003-0.057,0.005-0.111,0.005-0.165
                c0-0.427-0.08-0.767-0.24-1.02C78.229,64.037,77.979,63.911,77.639,63.911z"></path>
            <path fill="#FFFFFF" d="M80.809,66.61c0-0.42,0.01-0.831,0.03-1.234s0.03-0.805,0.03-1.205l-0.66-0.08v-0.26
                c0.213-0.08,0.432-0.15,0.655-0.21c0.223-0.061,0.441-0.11,0.655-0.15h0.25c0,0.5-0.01,0.997-0.03,1.49s-0.03,0.983-0.03,1.47
                c0,0.26,0.015,0.493,0.045,0.7c0.03,0.207,0.083,0.38,0.16,0.52c0.077,0.141,0.182,0.249,0.315,0.325
                c0.133,0.077,0.303,0.115,0.51,0.115c0.3,0,0.551-0.108,0.755-0.325c0.203-0.217,0.361-0.498,0.475-0.845v-2.75l-0.65-0.08v-0.26
                c0.207-0.08,0.422-0.15,0.645-0.21c0.224-0.061,0.442-0.11,0.655-0.15h0.25v4.55l0.66,0.08v0.21
                c-0.194,0.087-0.389,0.164-0.585,0.23c-0.196,0.066-0.401,0.116-0.615,0.149h-0.25l-0.07-1.189h-0.04
                c-0.034,0.14-0.092,0.281-0.175,0.425s-0.191,0.273-0.325,0.39c-0.134,0.117-0.285,0.212-0.455,0.285s-0.355,0.11-0.555,0.11
                c-0.267,0-0.501-0.032-0.705-0.095c-0.203-0.063-0.375-0.176-0.515-0.335c-0.14-0.16-0.247-0.375-0.32-0.646
                C80.845,67.366,80.809,67.024,80.809,66.61z"></path>
            <path fill="#FFFFFF" d="M88.409,68.591h-2.22v-0.25c0.1-0.054,0.203-0.099,0.31-0.135c0.106-0.037,0.223-0.072,0.35-0.105v-3.93
                l-0.66-0.08v-0.26c0.193-0.08,0.403-0.15,0.63-0.21c0.227-0.061,0.453-0.11,0.68-0.15h0.25v4.63
                c0.133,0.033,0.253,0.068,0.36,0.105c0.106,0.036,0.207,0.081,0.3,0.135V68.591z M86.659,61.891c0-0.18,0.059-0.323,0.175-0.43
                c0.116-0.106,0.271-0.16,0.465-0.16s0.347,0.054,0.46,0.16s0.17,0.25,0.17,0.43c0,0.181-0.057,0.322-0.17,0.425
                c-0.113,0.104-0.267,0.155-0.46,0.155s-0.349-0.052-0.465-0.155C86.717,62.213,86.659,62.071,86.659,61.891z"></path>
            <path fill="#FFFFFF" d="M91.418,68.591h-2.22v-0.25c0.22-0.106,0.44-0.187,0.66-0.24v-6.33l-0.76-0.08v-0.26
                c0.173-0.08,0.39-0.149,0.65-0.21c0.26-0.06,0.513-0.11,0.76-0.149h0.25v7.029c0.22,0.054,0.44,0.134,0.66,0.24V68.591z"></path>
            <path fill="#FFFFFF" d="M94.429,68.591h-2.22v-0.25c0.22-0.106,0.44-0.187,0.66-0.24v-6.33l-0.76-0.08v-0.26
                c0.173-0.08,0.39-0.149,0.65-0.21c0.26-0.06,0.513-0.11,0.76-0.149h0.25v7.029c0.22,0.054,0.44,0.134,0.66,0.24V68.591z"></path>
            <path fill="#FFFFFF" d="M95.229,64.091c-0.1-0.026-0.191-0.06-0.275-0.1s-0.168-0.087-0.255-0.141v-0.26h2.1v0.25
                c-0.14,0.094-0.33,0.177-0.57,0.25l1.271,2.96l0.189,0.62h0.02l0.15-0.63l0.95-2.95c-0.2-0.04-0.383-0.12-0.55-0.24v-0.26h1.71
                v0.26c-0.14,0.094-0.33,0.174-0.57,0.24l-1.56,4.5c-0.16,0.427-0.312,0.771-0.455,1.035c-0.144,0.263-0.287,0.472-0.43,0.625
                c-0.144,0.153-0.29,0.265-0.44,0.335s-0.312,0.121-0.485,0.155c-0.074-0.127-0.139-0.268-0.195-0.42
                c-0.057-0.154-0.105-0.301-0.145-0.44l0.13-0.24h1.04c0.04-0.054,0.075-0.104,0.105-0.155c0.03-0.05,0.062-0.111,0.095-0.185
                s0.07-0.167,0.11-0.28s0.087-0.257,0.14-0.43L95.229,64.091z"></path>
        </g>
        <g id="sur-seine" enable-background="new">
            <path fill="#FFFFFF" d="M70.639,79.451c0-0.187-0.059-0.346-0.175-0.476s-0.265-0.251-0.445-0.365
                c-0.18-0.113-0.372-0.223-0.575-0.329c-0.203-0.107-0.395-0.232-0.575-0.375c-0.18-0.144-0.329-0.309-0.445-0.495
                s-0.175-0.417-0.175-0.69c0-0.18,0.042-0.347,0.125-0.5c0.083-0.153,0.195-0.285,0.335-0.395c0.14-0.11,0.303-0.197,0.49-0.261
                c0.187-0.062,0.387-0.095,0.6-0.095c0.36,0,0.655,0.021,0.885,0.061s0.452,0.097,0.665,0.17c-0.027,0.213-0.059,0.428-0.095,0.645
                s-0.088,0.438-0.155,0.665h-0.25l-0.38-1.02c-0.08-0.033-0.17-0.056-0.27-0.065c-0.1-0.01-0.203-0.015-0.31-0.015
                c-0.12,0-0.225,0.021-0.315,0.064c-0.09,0.044-0.167,0.099-0.23,0.165c-0.063,0.067-0.111,0.144-0.145,0.23
                c-0.033,0.087-0.05,0.173-0.05,0.26c0,0.18,0.058,0.335,0.175,0.465s0.265,0.25,0.445,0.36c0.18,0.109,0.372,0.218,0.575,0.325
                c0.204,0.106,0.395,0.227,0.575,0.359c0.18,0.134,0.328,0.289,0.445,0.465c0.117,0.177,0.175,0.389,0.175,0.636
                c0,0.227-0.048,0.43-0.145,0.609c-0.097,0.181-0.23,0.334-0.4,0.46c-0.17,0.127-0.367,0.226-0.59,0.295
                c-0.223,0.07-0.461,0.105-0.715,0.105c-0.287,0-0.55-0.025-0.79-0.075c-0.24-0.05-0.49-0.121-0.75-0.215
                c0.013-0.24,0.043-0.472,0.09-0.695c0.047-0.223,0.107-0.438,0.18-0.645h0.25l0.44,1.09c0.073,0.054,0.162,0.083,0.265,0.09
                c0.103,0.007,0.198,0.01,0.285,0.01c0.293,0,0.53-0.08,0.71-0.239C70.549,79.871,70.639,79.678,70.639,79.451z"></path>
            <path fill="#FFFFFF" d="M75.289,73.471l0.42,0.18l-3.65,8.24l-0.41-0.189L75.289,73.471z"></path>
            <path fill="#FFFFFF" d="M79.389,79.9c0.08,0.08,0.183,0.148,0.31,0.205c0.126,0.057,0.316,0.085,0.57,0.085
                c0.213,0,0.414-0.028,0.6-0.085s0.348-0.14,0.485-0.25c0.137-0.109,0.245-0.243,0.325-0.399c0.08-0.157,0.12-0.335,0.12-0.535
                c0-0.267-0.082-0.49-0.245-0.67c-0.164-0.18-0.367-0.34-0.61-0.48c-0.244-0.14-0.509-0.276-0.795-0.41
                c-0.287-0.133-0.551-0.291-0.795-0.475c-0.243-0.184-0.447-0.403-0.61-0.66c-0.164-0.256-0.245-0.578-0.245-0.965
                c0-0.28,0.05-0.53,0.15-0.75c0.1-0.22,0.242-0.406,0.425-0.56c0.183-0.153,0.401-0.271,0.655-0.355
                c0.253-0.083,0.537-0.125,0.85-0.125c0.407,0,0.778,0.032,1.115,0.095c0.336,0.063,0.602,0.143,0.795,0.235
                c0,0.113-0.008,0.245-0.025,0.396c-0.017,0.149-0.037,0.305-0.06,0.465c-0.023,0.16-0.048,0.314-0.075,0.465
                c-0.027,0.149-0.053,0.281-0.08,0.395h-0.26l-0.4-1.37c-0.122-0.053-0.274-0.093-0.459-0.119c-0.185-0.027-0.382-0.04-0.59-0.04
                c-0.343,0-0.619,0.095-0.828,0.284c-0.208,0.19-0.313,0.455-0.313,0.796c0,0.273,0.082,0.503,0.247,0.689s0.371,0.354,0.619,0.5
                s0.515,0.288,0.8,0.425c0.285,0.137,0.552,0.295,0.8,0.476c0.248,0.18,0.455,0.394,0.619,0.64c0.165,0.247,0.247,0.554,0.247,0.92
                c0,0.3-0.055,0.573-0.165,0.82c-0.11,0.246-0.268,0.456-0.475,0.63c-0.207,0.174-0.46,0.307-0.76,0.4
                c-0.3,0.093-0.64,0.14-1.02,0.14c-0.42,0-0.797-0.05-1.13-0.15c-0.333-0.1-0.57-0.206-0.71-0.319
                c0.006-0.113,0.018-0.25,0.035-0.41c0.016-0.16,0.036-0.325,0.06-0.495s0.048-0.335,0.075-0.495c0.026-0.16,0.053-0.297,0.08-0.41
                h0.26L79.389,79.9z"></path>
            <path fill="#FFFFFF" d="M87.709,79.891c-0.053,0.113-0.137,0.22-0.25,0.32c-0.113,0.1-0.243,0.187-0.39,0.26
                c-0.146,0.073-0.307,0.132-0.48,0.175c-0.173,0.044-0.35,0.065-0.53,0.065c-0.394,0-0.74-0.062-1.04-0.186
                c-0.3-0.123-0.55-0.3-0.75-0.529c-0.2-0.23-0.352-0.505-0.455-0.825s-0.155-0.68-0.155-1.08c0-0.854,0.196-1.503,0.59-1.95
                c0.393-0.446,0.95-0.67,1.67-0.67c0.233,0,0.463,0.032,0.69,0.095c0.227,0.063,0.428,0.169,0.605,0.315s0.32,0.342,0.43,0.585
                s0.165,0.545,0.165,0.905c0,0.113-0.005,0.229-0.015,0.345c-0.01,0.117-0.028,0.242-0.055,0.375h-3.12
                c0,0.28,0.035,0.542,0.105,0.785c0.07,0.243,0.175,0.455,0.315,0.635s0.316,0.322,0.53,0.425c0.213,0.104,0.463,0.155,0.75,0.155
                c0.233,0,0.47-0.033,0.71-0.1c0.24-0.067,0.42-0.153,0.54-0.261L87.709,79.891z M85.879,75.911c-0.38,0-0.67,0.128-0.87,0.385
                c-0.2,0.257-0.32,0.708-0.36,1.354h2.2c0.006-0.06,0.011-0.118,0.015-0.175c0.003-0.057,0.005-0.111,0.005-0.165
                c0-0.427-0.08-0.767-0.24-1.02C86.469,76.037,86.219,75.911,85.879,75.911z"></path>
            <path fill="#FFFFFF" d="M90.909,80.591h-2.22v-0.25c0.1-0.054,0.203-0.099,0.31-0.135c0.106-0.037,0.223-0.072,0.35-0.105v-3.93
                l-0.66-0.08v-0.26c0.193-0.08,0.403-0.15,0.63-0.21c0.227-0.061,0.453-0.11,0.68-0.15h0.25v4.63
                c0.133,0.033,0.253,0.068,0.36,0.105c0.106,0.036,0.207,0.081,0.3,0.135V80.591z M89.159,73.891c0-0.18,0.059-0.323,0.175-0.43
                c0.116-0.106,0.271-0.16,0.465-0.16s0.347,0.054,0.46,0.16s0.17,0.25,0.17,0.43c0,0.181-0.057,0.322-0.17,0.425
                c-0.113,0.104-0.267,0.155-0.46,0.155s-0.349-0.052-0.465-0.155C89.217,74.213,89.159,74.071,89.159,73.891z"></path>
            <path fill="#FFFFFF" d="M97.059,80.591h-2.15v-0.25c0.18-0.094,0.376-0.173,0.59-0.24v-2.37c0-0.506-0.073-0.906-0.22-1.199
                c-0.147-0.294-0.414-0.44-0.8-0.44c-0.167,0-0.322,0.03-0.465,0.09c-0.144,0.061-0.27,0.142-0.38,0.245
                c-0.11,0.104-0.205,0.22-0.285,0.35c-0.08,0.131-0.144,0.266-0.19,0.405v2.92c0.207,0.04,0.406,0.12,0.6,0.24v0.25h-2.16v-0.25
                c0.167-0.087,0.387-0.167,0.66-0.24v-3.93l-0.66-0.08v-0.26c0.173-0.073,0.373-0.141,0.6-0.2c0.227-0.06,0.463-0.113,0.71-0.16
                h0.25v1.12h0.01c0.14-0.307,0.342-0.57,0.605-0.79s0.582-0.33,0.955-0.33c0.267,0,0.505,0.032,0.715,0.095
                c0.21,0.063,0.385,0.176,0.525,0.335c0.14,0.16,0.247,0.375,0.32,0.646c0.073,0.27,0.11,0.611,0.11,1.025v2.529
                c0.267,0.047,0.487,0.127,0.66,0.24V80.591z"></path>
            <path fill="#FFFFFF" d="M101.688,79.891c-0.053,0.113-0.137,0.22-0.25,0.32c-0.113,0.1-0.243,0.187-0.39,0.26
                c-0.146,0.073-0.307,0.132-0.48,0.175c-0.173,0.044-0.35,0.065-0.53,0.065c-0.394,0-0.74-0.062-1.04-0.186
                c-0.3-0.123-0.55-0.3-0.75-0.529c-0.2-0.23-0.352-0.505-0.455-0.825s-0.155-0.68-0.155-1.08c0-0.854,0.196-1.503,0.59-1.95
                c0.393-0.446,0.95-0.67,1.67-0.67c0.233,0,0.463,0.032,0.69,0.095c0.227,0.063,0.428,0.169,0.605,0.315s0.32,0.342,0.43,0.585
                s0.165,0.545,0.165,0.905c0,0.113-0.005,0.229-0.015,0.345c-0.01,0.117-0.028,0.242-0.055,0.375h-3.12
                c0,0.28,0.035,0.542,0.105,0.785c0.07,0.243,0.175,0.455,0.315,0.635s0.316,0.322,0.53,0.425c0.213,0.104,0.463,0.155,0.75,0.155
                c0.233,0,0.47-0.033,0.71-0.1c0.24-0.067,0.42-0.153,0.54-0.261L101.688,79.891z M99.858,75.911c-0.38,0-0.67,0.128-0.87,0.385
                c-0.2,0.257-0.32,0.708-0.36,1.354h2.2c0.006-0.06,0.011-0.118,0.015-0.175c0.003-0.057,0.005-0.111,0.005-0.165
                c0-0.427-0.08-0.767-0.24-1.02C100.449,76.037,100.199,75.911,99.858,75.911z"></path>
        </g>
    </g>
</svg>
